<svg xmlns="http://www.w3.org/2000/svg" width="16.928" height="16.928" viewBox="0 0 16.928 16.928">
  <g id="search" transform="translate(0.5 0.5)">
    <g id="Group_282" data-name="Group 282">
      <g id="Group_281" data-name="Group 281">
        <path id="Path_336" data-name="Path 336" d="M7.014,0a7.014,7.014,0,1,0,7.014,7.014A7.022,7.022,0,0,0,7.014,0Zm0,12.734a5.719,5.719,0,1,1,5.719-5.719A5.726,5.726,0,0,1,7.014,12.734Z" fill="#151515" stroke="#000" stroke-width="1"/>
      </g>
    </g>
    <g id="Group_284" data-name="Group 284" transform="translate(10.921 10.921)">
      <g id="Group_283" data-name="Group 283">
        <path id="Path_337" data-name="Path 337" d="M355.863,354.948l-3.712-3.712a.647.647,0,0,0-.916.916l3.712,3.712a.647.647,0,0,0,.916-.916Z" transform="translate(-351.046 -351.046)" fill="#151515" stroke="#000" stroke-width="1"/>
      </g>
    </g>
  </g>
</svg>
